# xmcd
#
# Track frame offsets:
#	150
#	11958
#	19915
#	38968
#	49698
#	58838
#	69160
#	79540
#	85925
#	92563
#	101560
#	111363
#	127645
#	144173
#	152463
#	166365
#	177968
#	192683
#	203828
#	217773
#	227625
#	244405
#	255770
#
# Disc length: 3501 seconds
#
# Revision: 0
# Processed by: cddbd v1.5.2PL0 Copyright (c) Steve Scherf et al.
# Submitted via: EasyCDDAExtractor 16.0.6.1
#
DISCID=290dab17
DTITLE=Julian B. Coco and Magdalena Kuhn - Sin Duda!
DYEAR=1900
DGENRE=
TTITLE0=San José
TTITLE1=Dulce Sharloo
TTITLE2=Para cual de las tres
TTITLE3=Los dos Amigos
TTITLE4=El diablo suelto
TTITLE5=Mis felicitationes
TTITLE6=Juliana
TTITLE7=Serenata
TTITLE8=Infernal
TTITLE9=Lydia
TTITLE10=Esqueleto
TTITLE11=Mosaico de Tumbas
TTITLE12=Pourqoi souffrir
TTITLE13=Aura
TTITLE14=Winy
TTITLE15=Criselda
TTITLE16=Tumba cocktail y salsa
TTITLE17=Annette
TTITLE18=Lluvias de perlas
TTITLE19=Intrigas no boteco do padilha
TTITLE20=Un recuerdo
TTITLE21=Aire ardiente
TTITLE22=Noche Alegree
EXTD=
EXTT0=
EXTT1=
EXTT2=
EXTT3=
EXTT4=
EXTT5=
EXTT6=
EXTT7=
EXTT8=
EXTT9=
EXTT10=
EXTT11=
EXTT12=
EXTT13=
EXTT14=
EXTT15=
EXTT16=
EXTT17=
EXTT18=
EXTT19=
EXTT20=
EXTT21=
EXTT22=
PLAYORDER=
